<?xml version="1.0" encoding="utf-8"?>
<!-- Generator: Adobe Illustrator 23.0.5, SVG Export Plug-In . SVG Version: 6.00 Build 0)  -->
<svg version="1.1" id="Layer_1" xmlns="http://www.w3.org/2000/svg" xmlns:xlink="http://www.w3.org/1999/xlink" x="0px" y="0px"
	 viewBox="0 0 30 30" style="enable-background:new 0 0 30 30;" xml:space="preserve">
<g>
	<path d="M18.9,11.8c-0.4-0.4-1-0.7-1.6-0.7c-0.6,0-1.2,0.2-1.6,0.7L15,12.5l-0.7-0.7c-0.9-0.9-2.3-0.9-3.2,0
		c-0.9,0.9-0.9,2.3,0,3.2l3.9,3.9l3.9-3.9C19.8,14.1,19.8,12.7,18.9,11.8z"/>
	<path d="M10.7,20.1l-0.5-0.5c-0.9-1-1.9-1.6-3-1.8C7,16.6,6.4,15.7,5.6,15c0.4-1.1,0.4-2.1,0-3.1c1.2-0.9,1.8-2,1.7-3.3
		C7.3,7.4,6.6,6.3,5.3,5.2L4.8,4.9L4.4,5.2C3.1,6.2,2.4,7.3,2.5,8.6c0,0.2,0.1,0.5,0.1,0.7C2.3,9.3,2,9.2,1.7,9.1L1.1,9L0.9,9.6
		c-0.6,1.5-0.5,2.8,0.3,3.9h0c0.1,0.2,0.3,0.4,0.5,0.6c-0.3,0.1-0.6,0.1-0.9,0.2l-0.7,0.2l0.1,0.7c0.3,1.5,1.1,2.6,2.3,3.3l0,0
		c0.3,0.1,0.5,0.3,0.8,0.3c-0.2,0.2-0.4,0.4-0.6,0.6l-0.4,0.5l0.5,0.5c1.1,1.2,2.4,1.9,3.7,1.9c0.1,0,0.1,0,0.2,0c1,0,1.9-0.3,2.8-1
		c0.2,0.5,0.2,1,0,1.4c-0.3,0.5-0.8,0.7-1.4,0.7L8,24.9c0,0,0.1,0,0.1,0c1.1,0,2.1-0.5,2.6-1.4C11.4,22.5,11.3,21.2,10.7,20.1
		L10.7,20.1z M4.8,6.8c0.7,0.6,1,1.3,1.1,2c0,0.6-0.2,1.2-0.8,1.8C4.4,9.9,4,9.2,4,8.6C4,7.9,4.2,7.3,4.8,6.8z M2.1,10.7
		C3,11,3.6,11.4,4,12.1c0.4,0.6,0.5,1.2,0.3,1.9c-0.9-0.3-1.6-0.7-2-1.3C2,12.1,1.9,11.5,2.1,10.7z M2,15.5c0.8-0.1,1.6,0,2.2,0.3
		c0.6,0.4,1.1,0.9,1.4,1.6c-0.8,0.1-1.6,0-2.2-0.3C2.7,16.8,2.3,16.3,2,15.5z M6.7,20.8c-0.8,0-1.5-0.3-2.1-0.9
		c0.6-0.5,1.2-0.7,1.9-0.7c0.8,0,1.5,0.3,2.1,0.9C8,20.6,7.4,20.8,6.7,20.8z"/>
	<path d="M29.2,14.3c-0.3-0.1-0.6-0.1-0.9-0.2c0.2-0.2,0.4-0.4,0.5-0.6c0.8-1.1,0.9-2.4,0.3-3.9L28.9,9l-0.6,0.1
		c-0.3,0.1-0.6,0.1-0.9,0.2c0.1-0.2,0.1-0.5,0.1-0.7c0.1-1.3-0.6-2.5-1.9-3.4l-0.4-0.3l-0.4,0.3c-1.4,1-2.1,2.2-2.1,3.5
		c-0.1,1.2,0.5,2.3,1.7,3.3c-0.4,0.9-0.4,2,0,3.1c-0.8,0.7-1.4,1.6-1.7,2.8c-1.1,0.2-2.1,0.8-3,1.8l-0.5,0.5l0,0
		c-0.7,1-0.7,2.3-0.1,3.3c0.5,0.9,1.5,1.4,2.6,1.4c0,0,0.1,0,0.1,0l-0.1-1.5c-0.6,0-1.1-0.3-1.4-0.7c-0.3-0.4-0.3-1,0-1.4
		c0.8,0.7,1.8,1,2.8,1c0.1,0,0.1,0,0.2,0c1.4,0,2.6-0.7,3.7-1.9l0.5-0.5l-0.4-0.5c-0.2-0.2-0.4-0.4-0.6-0.6c0.3-0.1,0.6-0.2,0.8-0.3
		c1.2-0.7,2-1.8,2.3-3.3l0.1-0.7L29.2,14.3z M27.6,12.7c-0.4,0.6-1.1,1.1-2,1.3c-0.2-0.7,0-1.4,0.3-1.9c0.4-0.6,1.1-1.1,2-1.3
		C28.1,11.5,28,12.1,27.6,12.7z M25.2,6.8C25.8,7.3,26,7.9,26,8.6c0,0.7-0.4,1.3-1.1,2c-0.6-0.5-0.9-1.1-0.8-1.8
		C24.1,8.1,24.5,7.4,25.2,6.8z M23.3,20.8c-0.7,0-1.4-0.2-1.9-0.7c0.7-0.6,1.4-0.9,2.1-0.9c0.7,0,1.4,0.2,1.9,0.7
		C24.8,20.5,24.1,20.8,23.3,20.8z M26.6,17.2c-0.7,0.4-1.4,0.5-2.2,0.3c0.3-0.7,0.7-1.3,1.4-1.6c0.7-0.4,1.4-0.5,2.2-0.3
		C27.7,16.3,27.3,16.8,26.6,17.2z"/>
</g>
</svg>
